<?xml version="1.0" encoding="iso-8859-1"?>
<!-- Uploaded to: SVG Repo, www.svgrepo.com, Generator: SVG Repo Mixer Tools -->
<svg height="800px" width="800px" version="1.1" id="Layer_1" xmlns="http://www.w3.org/2000/svg" xmlns:xlink="http://www.w3.org/1999/xlink" 
	 viewBox="0 0 511.982 511.982" xml:space="preserve">
<path style="fill:#965353;" d="M426.64,319.989H85.333c-5.891,0-10.671,4.78-10.671,10.655v170.682
	c0,5.875,4.781,10.656,10.671,10.656H426.64c5.891,0,10.672-4.781,10.672-10.656V330.644
	C437.312,324.769,432.531,319.989,426.64,319.989z"/>
<g>
	<path style="fill:#7F4545;" d="M85.333,298.645c-5.891,0-10.671-4.766-10.671-10.656V42.662c0-5.891,4.781-10.664,10.671-10.664
		s10.656,4.773,10.656,10.664v245.327C95.989,293.88,91.223,298.645,85.333,298.645z"/>
	<path style="fill:#7F4545;" d="M426.64,298.645c-5.89,0-10.671-4.766-10.671-10.656V42.662c0-5.891,4.781-10.664,10.671-10.664
		c5.891,0,10.672,4.773,10.672,10.664v245.327C437.312,293.88,432.531,298.645,426.64,298.645z"/>
</g>
<path style="fill:#FFCE54;" d="M478.608,90.746L436.187,5.898C434.375,2.281,430.687,0,426.64,0H85.333
	c-4.047,0-7.734,2.281-9.547,5.898l-42.67,85.324c-1.641,3.312-1.469,7.234,0.469,10.383c1.953,3.141,5.375,5.055,9.078,5.055
	h426.65c0,0,0,0,0.016,0c5.874,0,10.655-4.773,10.655-10.664C479.983,94.09,479.483,92.293,478.608,90.746z"/>
<path style="fill:#7F4545;" d="M426.64,447.984h-31.998v-117.34c0-5.875-4.781-10.655-10.672-10.655s-10.656,4.78-10.656,10.655
	v117.34h-21.342v-117.34c0-5.875-4.766-10.655-10.655-10.655c-5.891,0-10.672,4.78-10.672,10.655v117.34h-21.328v-117.34
	c0-5.875-4.781-10.655-10.672-10.655s-10.671,4.78-10.671,10.655v117.34h-21.319v-117.34c0-5.875-4.781-10.655-10.672-10.655
	c-5.891,0-10.656,4.78-10.656,10.655v117.34h-21.343v-117.34c0-5.875-4.766-10.655-10.656-10.655s-10.671,4.78-10.671,10.655v117.34
	h-21.328v-117.34c0-5.875-4.781-10.655-10.671-10.655c-5.891,0-10.672,4.78-10.672,10.655v117.34h-21.327v-117.34
	c0-5.875-4.781-10.655-10.672-10.655c-5.89,0-10.656,4.78-10.656,10.655v117.34H85.333c-5.891,0-10.671,4.781-10.671,10.656
	c0,5.905,4.781,10.687,10.671,10.687h31.999c0,5.875,4.766,10.655,10.656,10.655c5.891,0,10.672-4.78,10.672-10.655h21.327
	c0,5.875,4.781,10.655,10.672,10.655c5.89,0,10.671-4.78,10.671-10.655h21.328c0,5.875,4.781,10.655,10.671,10.655
	c5.891,0,10.656-4.78,10.656-10.655h21.343c0,5.875,4.766,10.655,10.656,10.655c5.89,0,10.672-4.78,10.672-10.655h21.319
	c0,5.875,4.78,10.655,10.671,10.655s10.672-4.78,10.672-10.655h21.328c0,5.875,4.781,10.655,10.672,10.655
	c5.89,0,10.655-4.78,10.655-10.655h21.342c0,5.875,4.766,10.655,10.656,10.655s10.672-4.78,10.672-10.655h31.998
	c5.891,0,10.672-4.781,10.672-10.687C437.312,452.765,432.531,447.984,426.64,447.984z"/>
<g>
	<path style="fill:#F6BB42;" d="M77.786,67.122c-4.156,4.164-4.156,10.922,0,15.086c4.172,4.164,10.922,4.164,15.093,0
		c4.156-4.164,4.156-10.922,0-15.086C88.708,62.958,81.958,62.958,77.786,67.122z"/>
	<path style="fill:#F6BB42;" d="M114.207,45.787c-4.172-4.164-10.921-4.164-15.093,0c-4.156,4.164-4.156,10.921,0,15.085
		c4.172,4.164,10.921,4.164,15.093,0C118.363,56.708,118.363,49.951,114.207,45.787z"/>
	<path style="fill:#F6BB42;" d="M135.534,39.545c4.172-4.172,4.172-10.922,0-15.086c-4.156-4.163-10.921-4.163-15.078,0
		c-4.172,4.164-4.172,10.914,0,15.086C124.613,43.709,131.378,43.709,135.534,39.545z"/>
	<path style="fill:#F6BB42;" d="M92.879,39.545c4.156-4.172,4.156-10.922,0-15.086c-4.171-4.163-10.921-4.163-15.093,0
		c-4.171,4.164-4.171,10.914,0,15.086C81.958,43.709,88.708,43.709,92.879,39.545z"/>
	<path style="fill:#F6BB42;" d="M120.456,67.122c-4.172,4.164-4.172,10.922,0,15.086c4.156,4.164,10.921,4.164,15.078,0
		c4.172-4.164,4.172-10.922,0-15.086C131.378,62.958,124.613,62.958,120.456,67.122z"/>
	<path style="fill:#F6BB42;" d="M156.877,45.787c-4.172-4.164-10.922-4.164-15.094,0c-4.171,4.164-4.171,10.921,0,15.085
		c4.172,4.164,10.922,4.164,15.094,0C161.033,56.708,161.033,49.951,156.877,45.787z"/>
	<path style="fill:#F6BB42;" d="M178.204,39.545c4.156-4.172,4.156-10.922,0-15.086c-4.171-4.163-10.921-4.163-15.093,0
		c-4.156,4.164-4.156,10.914,0,15.086C167.283,43.709,174.033,43.709,178.204,39.545z"/>
	<path style="fill:#F6BB42;" d="M163.111,67.122c-4.156,4.164-4.156,10.922,0,15.086c4.172,4.164,10.922,4.164,15.093,0
		c4.156-4.164,4.156-10.922,0-15.086C174.033,62.958,167.283,62.958,163.111,67.122z"/>
	<path style="fill:#F6BB42;" d="M199.532,45.787c-4.156-4.164-10.921-4.164-15.078,0c-4.172,4.164-4.172,10.921,0,15.085
		c4.156,4.164,10.921,4.164,15.078,0C203.704,56.708,203.704,49.951,199.532,45.787z"/>
	<path style="fill:#F6BB42;" d="M220.859,39.545c4.171-4.172,4.171-10.922,0-15.086c-4.156-4.163-10.906-4.163-15.077,0
		c-4.172,4.164-4.172,10.914,0,15.086C209.953,43.709,216.703,43.709,220.859,39.545z"/>
	<path style="fill:#F6BB42;" d="M205.782,67.122c-4.172,4.164-4.172,10.922,0,15.086c4.171,4.164,10.921,4.164,15.077,0
		c4.171-4.164,4.171-10.922,0-15.086C216.703,62.958,209.953,62.958,205.782,67.122z"/>
	<path style="fill:#F6BB42;" d="M242.202,45.787c-4.171-4.164-10.921-4.164-15.093,0c-4.156,4.164-4.156,10.921,0,15.085
		c4.172,4.164,10.922,4.164,15.093,0C246.358,56.708,246.358,49.951,242.202,45.787z"/>
	<path style="fill:#F6BB42;" d="M263.53,39.545c4.172-4.172,4.172-10.922,0-15.086c-4.172-4.163-10.922-4.163-15.078,0
		c-4.172,4.164-4.172,10.914,0,15.086C252.608,43.709,259.358,43.709,263.53,39.545z"/>
	<path style="fill:#F6BB42;" d="M248.452,67.122c-4.172,4.164-4.172,10.922,0,15.086c4.156,4.164,10.906,4.164,15.078,0
		s4.172-10.922,0-15.086S252.608,62.958,248.452,67.122z"/>
	<path style="fill:#F6BB42;" d="M284.849,45.787c-4.156-4.164-10.921-4.164-15.069,0c-4.172,4.164-4.172,10.921,0,15.085
		c4.148,4.164,10.913,4.164,15.069,0C289.021,56.708,289.021,49.951,284.849,45.787z"/>
	<path style="fill:#F6BB42;" d="M306.192,39.545c4.156-4.172,4.156-10.922,0-15.086c-4.172-4.163-10.922-4.163-15.093,0
		c-4.156,4.164-4.156,10.914,0,15.086C295.27,43.709,302.02,43.709,306.192,39.545z"/>
	<path style="fill:#F6BB42;" d="M291.099,67.122c-4.156,4.164-4.156,10.922,0,15.086c4.171,4.164,10.921,4.164,15.093,0
		c4.156-4.164,4.156-10.922,0-15.086C302.02,62.958,295.27,62.958,291.099,67.122z"/>
	<path style="fill:#F6BB42;" d="M327.52,45.787c-4.172-4.164-10.922-4.164-15.078,0c-4.172,4.164-4.172,10.921,0,15.085
		c4.156,4.164,10.906,4.164,15.078,0S331.692,49.951,327.52,45.787z"/>
	<path style="fill:#F6BB42;" d="M348.847,39.545c4.171-4.172,4.171-10.922,0-15.086c-4.156-4.163-10.921-4.163-15.077,0
		c-4.172,4.164-4.172,10.914,0,15.086C337.927,43.709,344.691,43.709,348.847,39.545z"/>
	<path style="fill:#F6BB42;" d="M333.77,67.122c-4.172,4.164-4.172,10.922,0,15.086c4.156,4.164,10.921,4.164,15.077,0
		c4.171-4.164,4.171-10.922,0-15.086C344.691,62.958,337.927,62.958,333.77,67.122z"/>
	<path style="fill:#F6BB42;" d="M370.189,45.787c-4.172-4.164-10.922-4.164-15.093,0c-4.155,4.164-4.155,10.921,0,15.085
		c4.171,4.164,10.921,4.164,15.093,0C374.345,56.708,374.345,49.951,370.189,45.787z"/>
	<path style="fill:#F6BB42;" d="M391.517,39.545c4.156-4.172,4.156-10.922,0-15.086c-4.172-4.163-10.922-4.163-15.094,0
		c-4.156,4.164-4.156,10.914,0,15.086C380.595,43.709,387.345,43.709,391.517,39.545z"/>
	<path style="fill:#F6BB42;" d="M376.424,67.122c-4.156,4.164-4.156,10.922,0,15.086c4.172,4.164,10.922,4.164,15.094,0
		c4.156-4.164,4.156-10.922,0-15.086C387.345,62.958,380.595,62.958,376.424,67.122z"/>
	<path style="fill:#F6BB42;" d="M412.844,45.787c-4.156-4.164-10.921-4.164-15.077,0c-4.172,4.164-4.172,10.921,0,15.085
		c4.156,4.164,10.921,4.164,15.077,0C417.016,56.708,417.016,49.951,412.844,45.787z"/>
	<path style="fill:#F6BB42;" d="M434.187,39.545c4.156-4.172,4.156-10.922,0-15.086c-4.172-4.163-10.921-4.163-15.093,0
		c-4.172,4.164-4.172,10.914,0,15.086C423.266,43.709,430.015,43.709,434.187,39.545z"/>
	<path style="fill:#F6BB42;" d="M419.094,67.122c-4.172,4.164-4.172,10.922,0,15.086s10.921,4.164,15.093,0
		c4.156-4.164,4.156-10.922,0-15.086C430.015,62.958,423.266,62.958,419.094,67.122z"/>
</g>
<path style="fill:#CCD1D9;" d="M341.317,277.334c-5.891,0-10.672-4.781-10.672-10.68v-31.999c0-5.891,4.781-10.664,10.672-10.664
	c5.89,0,10.655,4.773,10.655,10.664v31.999C351.972,272.553,347.207,277.334,341.317,277.334z"/>
<path style="fill:#E6E9ED;" d="M362.642,277.334h-42.669c-5.891,0-10.656-4.781-10.656-10.68c0-5.891,4.766-10.663,10.656-10.663
	h42.669c5.891,0,10.672,4.772,10.672,10.663C373.314,272.553,368.533,277.334,362.642,277.334z"/>
<path style="fill:#A0D468;" d="M393.83,187.915c-1.656-3.992-5.547-6.586-9.859-6.586h-85.325c-4.312,0-8.202,2.594-9.858,6.586
	c-1.641,3.984-0.734,8.57,2.312,11.617l42.671,42.67c2,2,4.719,3.125,7.547,3.125c2.827,0,5.53-1.125,7.53-3.125l42.67-42.662
	C394.564,196.485,395.486,191.899,393.83,187.915z"/>
<path style="fill:#FC6E51;" d="M213.328,181.329H149.33c-5.891,0-10.671,4.773-10.671,10.664v85.341
	c0,5.874,4.781,10.655,10.671,10.655h63.998c5.891,0,10.656-4.781,10.656-10.655v-85.341
	C223.984,186.102,219.219,181.329,213.328,181.329z"/>
<path style="fill:#434A54;" d="M192.001,277.334c-4.234,0-8.25-2.547-9.906-6.719l-42.67-106.66
	c-2.188-5.469,0.469-11.68,5.937-13.867c5.469-2.187,11.672,0.477,13.859,5.945l42.671,106.66
	c2.188,5.469-0.469,11.672-5.938,13.859C194.657,277.084,193.313,277.334,192.001,277.334z"/>
<path style="fill:#A85D5D;" d="M447.969,277.334H63.99c-5.89,0-10.656,4.765-10.656,10.655v42.655
	c0,5.906,4.766,10.688,10.656,10.688h383.979c5.891,0,10.672-4.781,10.672-10.688v-42.655
	C458.64,282.098,453.859,277.334,447.969,277.334z"/>
<path style="opacity:0.1;fill:#FFFFFF;enable-background:new    ;" d="M447.969,277.334H63.99c-5.89,0-10.656,4.765-10.656,10.655
	v10.656c0-5.875,4.766-10.656,10.656-10.656h383.979c5.891,0,10.672,4.781,10.672,10.656v-10.656
	C458.64,282.098,453.859,277.334,447.969,277.334z"/>
</svg>