<?xml version="1.0" encoding="iso-8859-1"?>
<!-- Uploaded to: SVG Repo, www.svgrepo.com, Generator: SVG Repo Mixer Tools -->
<svg height="800px" width="800px" version="1.1" id="Layer_1" xmlns="http://www.w3.org/2000/svg" xmlns:xlink="http://www.w3.org/1999/xlink" 
	 viewBox="0 0 511.983 511.983" xml:space="preserve">
<path style="fill:#965353;" d="M393.536,190.588c-1.938-1.672-4.406-2.594-6.969-2.594H123.74c-2.562,0-5.031,0.922-6.969,2.594
	c-32.295,27.874-52.342,76.067-52.342,125.777c0,49.356,20.296,98.948,55.686,136.058c17.625,18.468,37.983,33.029,60.545,43.279
	c23.75,10.812,48.811,16.281,74.498,16.281c25.679,0,50.741-5.469,74.491-16.281c22.562-10.25,42.919-24.812,60.544-43.279
	c35.389-37.109,55.686-86.701,55.686-136.058C445.878,266.655,425.815,218.462,393.536,190.588z"/>
<g>
	<path style="fill:#7F4545;" d="M135.974,274.21c4.156-4.172,4.156-10.93,0-15.094c-4.172-4.163-10.922-4.163-15.093,0
		c-4.156,4.164-4.156,10.922,0,15.094C125.052,278.366,131.802,278.366,135.974,274.21z"/>
	<path style="fill:#7F4545;" d="M178.629,274.21c4.172-4.172,4.172-10.93,0-15.094c-4.156-4.163-10.906-4.163-15.078,0
		c-4.172,4.164-4.172,10.922,0,15.094C167.723,278.366,174.473,278.366,178.629,274.21z"/>
	<path style="fill:#7F4545;" d="M221.299,274.21c4.171-4.172,4.171-10.93,0-15.094c-4.156-4.163-10.922-4.163-15.077,0
		c-4.172,4.164-4.172,10.922,0,15.094C210.377,278.366,217.143,278.366,221.299,274.21z"/>
	<path style="fill:#7F4545;" d="M263.971,274.21c4.156-4.172,4.156-10.93,0-15.094c-4.172-4.163-10.922-4.163-15.094,0
		c-4.156,4.164-4.156,10.922,0,15.094C253.048,278.366,259.799,278.366,263.971,274.21z"/>
	<path style="fill:#7F4545;" d="M306.633,274.21c4.156-4.172,4.156-10.93,0-15.094c-4.172-4.163-10.922-4.163-15.094,0
		c-4.171,4.164-4.171,10.922,0,15.094C295.711,278.366,302.461,278.366,306.633,274.21z"/>
	<path style="fill:#7F4545;" d="M349.288,274.21c4.171-4.172,4.171-10.93,0-15.094c-4.156-4.163-10.921-4.163-15.077,0
		c-4.172,4.164-4.172,10.922,0,15.094C338.367,278.366,345.132,278.366,349.288,274.21z"/>
	<path style="fill:#7F4545;" d="M391.958,274.21c4.172-4.172,4.172-10.93,0-15.094c-4.172-4.163-10.922-4.163-15.094,0
		c-4.156,4.164-4.156,10.922,0,15.094C381.036,278.366,387.786,278.366,391.958,274.21z"/>
	<path style="fill:#7F4545;" d="M142.223,301.771c-4.171,4.188-4.171,10.938,0,15.094c4.156,4.156,10.906,4.156,15.078,0
		c4.171-4.156,4.171-10.906,0-15.094C153.13,297.615,146.38,297.615,142.223,301.771z"/>
	<path style="fill:#7F4545;" d="M99.554,301.771c-4.172,4.188-4.172,10.938,0,15.094c4.156,4.156,10.921,4.156,15.078,0
		c4.171-4.156,4.171-10.906,0-15.094C110.475,297.615,103.71,297.615,99.554,301.771z"/>
	<path style="fill:#7F4545;" d="M184.879,301.771c-4.156,4.188-4.156,10.938,0,15.094c4.172,4.156,10.921,4.156,15.093,0
		c4.156-4.156,4.156-10.906,0-15.094C195.8,297.615,189.051,297.615,184.879,301.771z"/>
	<path style="fill:#7F4545;" d="M227.549,301.771c-4.171,4.188-4.171,10.938,0,15.094c4.172,4.156,10.922,4.156,15.078,0
		c4.172-4.156,4.172-10.906,0-15.094C238.471,297.615,231.721,297.615,227.549,301.771z"/>
	<path style="fill:#7F4545;" d="M270.221,301.771c-4.172,4.188-4.172,10.938,0,15.094c4.148,4.156,10.913,4.156,15.069,0
		c4.172-4.156,4.172-10.906,0-15.094C281.134,297.615,274.369,297.615,270.221,301.771z"/>
	<path style="fill:#7F4545;" d="M312.867,301.771c-4.156,4.188-4.156,10.938,0,15.094c4.172,4.156,10.922,4.156,15.094,0
		c4.156-4.156,4.156-10.906,0-15.094C323.789,297.615,317.039,297.615,312.867,301.771z"/>
	<path style="fill:#7F4545;" d="M355.537,301.771c-4.171,4.188-4.171,10.938,0,15.094s10.921,4.156,15.093,0
		c4.156-4.156,4.156-10.906,0-15.094C366.458,297.615,359.708,297.615,355.537,301.771z"/>
	<path style="fill:#7F4545;" d="M398.208,316.865c4.156,4.156,10.921,4.156,15.077,0c4.172-4.156,4.172-10.906,0-15.094
		c-4.156-4.156-10.921-4.156-15.077,0C394.036,305.959,394.036,312.709,398.208,316.865z"/>
	<path style="fill:#7F4545;" d="M135.974,359.534c4.156-4.171,4.156-10.921,0-15.076c-4.172-4.172-10.922-4.172-15.093,0
		c-4.156,4.155-4.156,10.905,0,15.076C125.052,363.706,131.802,363.706,135.974,359.534z"/>
	<path style="fill:#7F4545;" d="M93.304,359.534c4.172-4.171,4.172-10.921,0-15.076c-4.171-4.172-10.921-4.172-15.078,0
		c-4.171,4.155-4.171,10.905,0,15.076C82.382,363.706,89.132,363.706,93.304,359.534z"/>
	<path style="fill:#7F4545;" d="M178.629,359.534c4.172-4.171,4.172-10.921,0-15.076c-4.156-4.172-10.906-4.172-15.078,0
		c-4.172,4.155-4.172,10.905,0,15.076C167.723,363.706,174.473,363.706,178.629,359.534z"/>
	<path style="fill:#7F4545;" d="M221.299,359.534c4.171-4.171,4.171-10.921,0-15.076c-4.156-4.172-10.922-4.172-15.077,0
		c-4.172,4.155-4.172,10.905,0,15.076C210.377,363.706,217.143,363.706,221.299,359.534z"/>
	<path style="fill:#7F4545;" d="M263.971,359.534c4.156-4.171,4.156-10.921,0-15.076c-4.172-4.172-10.922-4.172-15.094,0
		c-4.156,4.155-4.156,10.905,0,15.076C253.048,363.706,259.799,363.706,263.971,359.534z"/>
	<path style="fill:#7F4545;" d="M306.633,359.534c4.156-4.171,4.156-10.921,0-15.076c-4.172-4.172-10.922-4.172-15.094,0
		c-4.171,4.155-4.171,10.905,0,15.076C295.711,363.706,302.461,363.706,306.633,359.534z"/>
	<path style="fill:#7F4545;" d="M349.288,359.534c4.171-4.171,4.171-10.921,0-15.076c-4.156-4.172-10.921-4.172-15.077,0
		c-4.172,4.155-4.172,10.905,0,15.076C338.367,363.706,345.132,363.706,349.288,359.534z"/>
	<path style="fill:#7F4545;" d="M391.958,359.534c4.172-4.171,4.172-10.921,0-15.076c-4.172-4.172-10.922-4.172-15.094,0
		c-4.156,4.155-4.156,10.905,0,15.076C381.036,363.706,387.786,363.706,391.958,359.534z"/>
	<path style="fill:#7F4545;" d="M434.628,359.534c4.156-4.171,4.156-10.921,0-15.076c-4.172-4.172-10.921-4.172-15.093,0
		c-4.172,4.155-4.172,10.905,0,15.076C423.707,363.706,430.456,363.706,434.628,359.534z"/>
	<path style="fill:#7F4545;" d="M142.223,387.112c-4.171,4.156-4.171,10.921,0,15.093c4.156,4.156,10.906,4.156,15.078,0
		c4.171-4.172,4.171-10.937,0-15.093C153.13,382.956,146.38,382.956,142.223,387.112z"/>
	<path style="fill:#7F4545;" d="M99.554,387.112c-4.172,4.156-4.172,10.921,0,15.093c4.156,4.156,10.921,4.156,15.078,0
		c4.171-4.172,4.171-10.937,0-15.093C110.475,382.956,103.71,382.956,99.554,387.112z"/>
	<path style="fill:#7F4545;" d="M184.879,387.112c-4.156,4.156-4.156,10.921,0,15.093c4.172,4.156,10.921,4.156,15.093,0
		c4.156-4.172,4.156-10.937,0-15.093C195.8,382.956,189.051,382.956,184.879,387.112z"/>
	<path style="fill:#7F4545;" d="M227.549,387.112c-4.171,4.156-4.171,10.921,0,15.093c4.172,4.156,10.922,4.156,15.078,0
		c4.172-4.172,4.172-10.937,0-15.093C238.471,382.956,231.721,382.956,227.549,387.112z"/>
	<path style="fill:#7F4545;" d="M270.221,387.112c-4.172,4.156-4.172,10.921,0,15.093c4.148,4.156,10.913,4.156,15.069,0
		c4.172-4.172,4.172-10.937,0-15.093C281.134,382.956,274.369,382.956,270.221,387.112z"/>
	<path style="fill:#7F4545;" d="M227.549,472.453c-4.171,4.156-4.171,10.905,0,15.077c4.172,4.172,10.922,4.172,15.078,0
		c4.172-4.172,4.172-10.921,0-15.077C238.471,468.281,231.721,468.281,227.549,472.453z"/>
	<path style="fill:#7F4545;" d="M270.221,472.453c-4.172,4.156-4.172,10.905,0,15.077c4.148,4.172,10.913,4.172,15.069,0
		c4.172-4.172,4.172-10.921,0-15.077C281.134,468.281,274.369,468.281,270.221,472.453z"/>
	<path style="fill:#7F4545;" d="M312.867,387.112c-4.156,4.156-4.156,10.921,0,15.093c4.172,4.156,10.922,4.156,15.094,0
		c4.156-4.172,4.156-10.937,0-15.093C323.789,382.956,317.039,382.956,312.867,387.112z"/>
	<path style="fill:#7F4545;" d="M312.867,472.453c-4.156,4.156-4.156,10.905,0,15.077c4.172,4.172,10.922,4.172,15.094,0
		c4.156-4.172,4.156-10.921,0-15.077C323.789,468.281,317.039,468.281,312.867,472.453z"/>
	<path style="fill:#7F4545;" d="M184.879,472.453c-4.156,4.156-4.156,10.905,0,15.077c4.172,4.172,10.921,4.172,15.093,0
		c4.156-4.172,4.156-10.921,0-15.077C195.8,468.281,189.051,468.281,184.879,472.453z"/>
	<path style="fill:#7F4545;" d="M355.537,387.112c-4.171,4.156-4.171,10.921,0,15.093c4.171,4.156,10.921,4.156,15.093,0
		c4.156-4.172,4.156-10.937,0-15.093C366.458,382.956,359.708,382.956,355.537,387.112z"/>
	<path style="fill:#7F4545;" d="M141.443,387.112c-4.156,4.156-4.156,10.921,0,15.093c4.171,4.156,10.921,4.156,15.093,0
		c4.156-4.172,4.156-10.937,0-15.093C152.364,382.956,145.614,382.956,141.443,387.112z"/>
	<path style="fill:#7F4545;" d="M397.427,387.112c-4.156,4.156-4.156,10.921,0,15.093c4.172,4.156,10.921,4.156,15.093,0
		c4.156-4.172,4.156-10.937,0-15.093C408.347,382.956,401.598,382.956,397.427,387.112z"/>
	<path style="fill:#7F4545;" d="M163.551,429.782c-4.172,4.172-4.172,10.922,0,15.078c4.172,4.172,10.922,4.172,15.078,0
		c4.172-4.156,4.172-10.906,0-15.078C174.473,425.61,167.723,425.61,163.551,429.782z"/>
	<path style="fill:#7F4545;" d="M120.881,429.782c-4.156,4.172-4.156,10.922,0,15.078c4.171,4.172,10.921,4.172,15.093,0
		c4.156-4.156,4.156-10.906,0-15.078C131.802,425.61,125.052,425.61,120.881,429.782z"/>
	<path style="fill:#7F4545;" d="M206.222,429.782c-4.172,4.172-4.172,10.922,0,15.078c4.155,4.172,10.921,4.172,15.077,0
		c4.171-4.156,4.171-10.906,0-15.078C217.143,425.61,210.377,425.61,206.222,429.782z"/>
	<path style="fill:#7F4545;" d="M248.876,429.782c-4.156,4.172-4.156,10.922,0,15.078c4.172,4.172,10.922,4.172,15.094,0
		c4.156-4.156,4.156-10.906,0-15.078C259.799,425.61,253.048,425.61,248.876,429.782z"/>
	<path style="fill:#7F4545;" d="M291.539,429.782c-4.171,4.172-4.171,10.922,0,15.078c4.172,4.172,10.922,4.172,15.094,0
		c4.156-4.156,4.156-10.906,0-15.078C302.461,425.61,295.711,425.61,291.539,429.782z"/>
	<path style="fill:#7F4545;" d="M334.211,429.782c-4.172,4.172-4.172,10.922,0,15.078c4.156,4.172,10.921,4.172,15.077,0
		c4.171-4.156,4.171-10.906,0-15.078C345.132,425.61,338.367,425.61,334.211,429.782z"/>
	<path style="fill:#7F4545;" d="M376.864,429.782c-4.156,4.172-4.156,10.922,0,15.078c4.172,4.172,10.922,4.172,15.094,0
		c4.156-4.156,4.156-10.906,0-15.078C387.786,425.61,381.036,425.61,376.864,429.782z"/>
</g>
<path style="fill:#E6E9ED;" d="M386.598,202.658c0,17.679-58.81,31.998-131.363,31.998c-72.56,0-131.371-14.319-131.371-31.998
	c0-17.672,58.811-31.999,131.371-31.999C327.789,170.659,386.598,184.986,386.598,202.658z"/>
<path style="opacity:0.1;fill:#FFFFFF;enable-background:new    ;" d="M393.536,190.588c-1.938-1.672-4.406-2.594-6.969-2.594
	h-21.328c2.562,0,5.031,0.922,6.969,2.594c32.281,27.874,52.343,76.067,52.343,125.777c0,49.356-20.296,98.948-55.687,136.058
	c-17.623,18.468-37.997,33.029-60.544,43.279c-20.452,9.312-41.865,14.656-63.834,15.953c3.547,0.203,7.109,0.328,10.672,0.328
	c25.679,0,50.741-5.469,74.491-16.281c22.562-10.25,42.919-24.812,60.544-43.279c35.389-37.109,55.686-86.701,55.686-136.058
	C445.878,266.655,425.815,218.462,393.536,190.588z"/>
<path style="fill:#CCD1D9;" d="M330.945,213.329H181.957c-5.906,0-10.671-4.781-10.671-10.671c0-5.891,4.765-10.664,10.671-10.664
	h148.988c5.891,0,10.655,4.773,10.655,10.664C341.6,208.548,336.836,213.329,330.945,213.329z"/>
<path style="fill:#7F4545;" d="M255.236,245.328c-35.921,0-69.81-3.438-95.419-9.68c-31.358-7.641-46.607-18.429-46.607-32.99
	c0-14.555,15.249-25.343,46.607-32.983c25.625-6.242,59.498-9.68,95.419-9.68c35.914,0,69.788,3.438,95.412,9.68
	c31.357,7.641,46.607,18.429,46.607,32.983c0,14.562-15.25,25.35-46.607,32.99C325.023,241.89,291.149,245.328,255.236,245.328z
	 M135.021,202.658c2.516,2.664,11.765,8.405,35.077,13.468c23.358,5.078,53.592,7.866,85.138,7.866
	c31.539,0,61.772-2.788,85.131-7.866c23.31-5.062,32.56-10.804,35.075-13.468c-2.516-2.656-11.766-8.398-35.075-13.461
	c-23.359-5.078-53.593-7.867-85.131-7.867c-31.546,0-61.779,2.789-85.138,7.867C146.786,194.26,137.536,200.002,135.021,202.658z"/>
<path style="fill:#434A54;" d="M223.877,199.291L159.879,7.298c-0.031-0.086-0.062-0.164-0.094-0.242
	c-0.078-0.219-0.156-0.438-0.25-0.656c-0.062-0.133-0.125-0.266-0.203-0.406c-0.078-0.172-0.156-0.344-0.266-0.516
	c-0.094-0.172-0.188-0.328-0.297-0.492c-0.078-0.133-0.156-0.258-0.234-0.383c-0.141-0.188-0.281-0.375-0.421-0.555
	c-0.062-0.07-0.109-0.141-0.156-0.211c-0.031-0.023-0.047-0.047-0.078-0.07c-0.141-0.18-0.312-0.352-0.469-0.516
	c-0.094-0.094-0.172-0.188-0.266-0.281c-0.141-0.133-0.297-0.258-0.438-0.391c-0.125-0.102-0.25-0.211-0.375-0.312
	c-0.125-0.094-0.25-0.172-0.359-0.258c-0.172-0.125-0.344-0.242-0.516-0.352c-0.094-0.062-0.188-0.109-0.281-0.164
	c-0.203-0.125-0.406-0.242-0.609-0.352c-0.094-0.039-0.188-0.078-0.281-0.117c-0.219-0.102-0.438-0.211-0.656-0.297
	c-0.125-0.047-0.25-0.086-0.375-0.125c-0.188-0.07-0.391-0.141-0.578-0.195c-0.188-0.047-0.375-0.086-0.562-0.133
	c-0.141-0.031-0.281-0.07-0.422-0.094c-0.219-0.047-0.453-0.07-0.672-0.094c-0.109-0.016-0.219-0.031-0.328-0.047
	c-0.234-0.016-0.453-0.023-0.688-0.023C149.896,0.008,149.771,0,149.646,0c-0.188,0.008-0.391,0.023-0.578,0.031
	c-0.156,0.016-0.312,0.016-0.469,0.031c-0.156,0.023-0.312,0.047-0.469,0.07c-0.203,0.031-0.406,0.062-0.594,0.109
	c-0.125,0.023-0.234,0.055-0.359,0.086c-0.234,0.055-0.469,0.117-0.703,0.195c-0.031,0.008-0.062,0.016-0.094,0.023
	c-0.078,0.023-0.141,0.062-0.234,0.094c-0.219,0.078-0.438,0.164-0.656,0.258c-0.125,0.055-0.266,0.125-0.391,0.188
	c-0.188,0.086-0.359,0.172-0.531,0.266s-0.328,0.195-0.484,0.297c-0.141,0.086-0.266,0.164-0.391,0.25
	c-0.188,0.133-0.375,0.273-0.547,0.414c-0.078,0.055-0.141,0.102-0.219,0.156L78.929,55.804c-4.515,3.772-5.125,10.499-1.359,15.022
	c2.109,2.531,5.141,3.836,8.203,3.836c2.406,0,4.828-0.805,6.812-2.469l51.998-43.327l59.061,177.166
	c1.484,4.469,5.64,7.297,10.108,7.297c1.125,0,2.266-0.18,3.375-0.547C222.721,210.915,225.736,204.877,223.877,199.291z"/>
<path style="fill:#F4BE8E;" d="M296.664,213.329c-1.625,0-3.281-0.367-4.828-1.156c-5.249-2.664-7.343-9.077-4.687-14.335
	l83.668-165.042c2.656-5.258,9.078-7.359,14.344-4.695c5.25,2.664,7.344,9.086,4.688,14.336L306.18,207.486
	C304.304,211.188,300.554,213.329,296.664,213.329z"/>
<path style="fill:#ED5564;" d="M445.909,156.276L379.723,50.968c-2.109-3.336-5.875-5.242-9.797-4.961L245.86,54.859
	c-4.781,0.344-8.75,3.827-9.703,8.53c-0.938,4.703,1.359,9.453,5.64,11.625l190.267,96.458c1.531,0.773,3.188,1.148,4.812,1.148
	c2.938,0,5.812-1.203,7.891-3.477C448.003,165.596,448.471,160.339,445.909,156.276z"/>
</svg>